<svg id="Слой_1" data-name="Слой 1" xmlns="http://www.w3.org/2000/svg" xmlns:xlink="http://www.w3.org/1999/xlink" viewBox="0 0 102 74"><defs><style>.cls-1,.cls-2,.cls-3{stroke-miterlimit:10;}.cls-1{fill:url(#Безымянный_градиент_111);stroke:url(#Безымянный_градиент_11);}.cls-2{fill:none;}.cls-2,.cls-3{stroke:#000;}</style><radialGradient id="Безымянный_градиент_111" cx="683" cy="384" r="44.06" gradientUnits="userSpaceOnUse"><stop offset="0" stop-color="#fff"/><stop offset="0.09" stop-color="#d8f8ff"/><stop offset="0.22" stop-color="#a5eeff"/><stop offset="0.35" stop-color="#79e6ff"/><stop offset="0.48" stop-color="#55e0ff"/><stop offset="0.61" stop-color="#39dbff"/><stop offset="0.74" stop-color="#25d7ff"/><stop offset="0.87" stop-color="#19d5ff"/><stop offset="1" stop-color="#15d4ff"/></radialGradient><radialGradient id="Безымянный_градиент_11" cx="683" cy="384" r="44.55" gradientUnits="userSpaceOnUse"><stop offset="0" stop-color="#fff"/><stop offset="0.02" stop-color="#f4f4f4"/><stop offset="0.14" stop-color="#bcbcbc"/><stop offset="0.25" stop-color="#8a8a8a"/><stop offset="0.37" stop-color="#5f5f5f"/><stop offset="0.49" stop-color="#3d3d3d"/><stop offset="0.61" stop-color="#222"/><stop offset="0.74" stop-color="#0f0f0f"/><stop offset="0.87" stop-color="#040404"/><stop offset="1"/></radialGradient></defs><path class="cls-1" d="M724.92,394.38A9.9,9.9,0,0,1,727.5,401c0,5.8-5.15,10.5-11.5,10.5a12.31,12.31,0,0,1-4.7-.92c-1.06,5.64-6.39,9.92-12.8,9.92-6.19,0-11.38-4-12.68-9.35a12,12,0,0,1-11.32,7.35c-6.17,0-11.24-4.26-11.92-9.74a12.93,12.93,0,0,1-8.08,2.74c-6.63,0-12-4.7-12-10.5,0-.2,0-.4,0-.6a11.5,11.5,0,0,1-3-22,10.49,10.49,0,0,1,13.5-16A12.5,12.5,0,0,1,677.51,360c.27-7,6.65-12.54,14.49-12.54,7.55,0,13.76,5.18,14.44,11.79A12.62,12.62,0,0,1,713,357.5c6.35,0,11.5,4.48,11.5,10a8.84,8.84,0,0,1-1.56,5h.56c5.52,0,10,4.92,10,11C733.5,389.05,729.77,393.63,724.92,394.38Z" transform="translate(-632 -347)"/><path class="cls-2" d="M656.5,403.5" transform="translate(-632 -347)"/><circle class="cls-3" cx="38" cy="29" r="3.5"/><circle class="cls-3" cx="62" cy="29" r="3.5"/><path d="M661.5,401.5" transform="translate(-632 -347)"/><path class="cls-2" d="M661,400c11.7-12.67,32.27-12.67,46,0" transform="translate(-632 -347)"/></svg>