<svg width="580" height="400" xmlns="http://www.w3.org/2000/svg"> <!-- Created with SVG Editor - http://github.com/mzalive/SVG Editor/ --> <g>  <title>background</title>  <g display="none" overflow="visible" y="0" x="0" height="100%" width="100%" id="canvasGrid">   <rect fill="url(#gridpattern)" stroke-width="0" y="0" x="0" height="100%" width="100%"/>  </g> </g> <g>  <title>Layer 1</title>  <style transform="matrix(0.00952743657549654,0,0,0.00952743657549654,0,0) " type="text/css">.st0{fill:none;stroke:#000000;stroke-width:5;stroke-miterlimit:10;}</style>  <g stroke="null" id="svg_44">   <g stroke="null" transform="matrix(-2.69584207876304,0,0,2.174706853197289,89556.69014849298,-36910.513856361125) " id="svg_5">    <line stroke="null" id="svg_7" y2="17152.350287" x2="33217.250537" y1="17152.350287" x1="33009.150537" class="st0"/>    <line stroke="null" id="svg_8" y2="17142.950287" x2="33216.550537" y1="17142.950287" x1="33008.450537" class="st0"/>    <line stroke="null" id="svg_9" y2="17142.350287" x2="33009.150537" y1="17153.050287" x1="33009.150537" class="st0"/>    <line stroke="null" id="svg_10" y2="17142.350287" x2="33217.250537" y1="17153.050287" x1="33217.250537" class="st0"/>    <line stroke="null" id="svg_11" y2="17140.950287" x2="33078.950537" y1="17046.250287" x1="33078.950537" class="st0"/>    <line stroke="null" id="svg_12" y2="17140.950287" x2="33068.150537" y1="17048.350287" x1="33068.150537" class="st0"/>Q    <line stroke="null" id="svg_13" y2="17140.950287" x2="33147.450537" y1="17048.350287" x1="33147.450537" class="st0"/>    <line stroke="null" id="svg_14" y2="17140.950287" x2="33158.150537" y1="17048.350287" x1="33158.150537" class="st0"/>    <line stroke="null" id="svg_15" y2="17140.950287" x2="33014.450537" y1="17073.150287" x1="33014.450537" class="st0"/>    <line stroke="null" id="svg_16" y2="17141.350287" x2="33212.550537" y1="17073.550287" x1="33212.550537" class="st0"/>    <line stroke="null" id="svg_17" y2="17046.250287" x2="33166.250537" y1="17046.250287" x1="33060.150537" class="st0"/>    <line stroke="null" id="svg_18" y2="17035.550287" x2="33165.550537" y1="17035.550287" x1="33059.450537" class="st0"/>    <line stroke="null" id="svg_19" y2="17036.250287" x2="33164.850537" y1="17045.650287" x1="33164.850537" class="st0"/>    <line stroke="null" id="svg_20" y2="17036.250287" x2="33060.150537" y1="17045.650287" x1="33060.150537" class="st0"/>    <polygon stroke="null" id="svg_21" points="33112.450293272734,17003.34877347946 33159.450293272734,17035.54994535446 33065.551855772734,17035.54994535446 " class="st0"/>    <line stroke="null" id="svg_22" y2="17062.450287" x2="33066.150537" y1="17062.450287" x1="33012.450537" class="st0"/>    <line stroke="null" id="svg_23" y2="17062.450287" x2="33213.850537" y1="17062.450287" x1="33160.150537" class="st0"/>    <path stroke="null" id="svg_24" d="m33053.750537,17100.050287l-24.9,0c-2,0 -3.7,-1.6 -3.7,-3.7l0,-7.5c0,-2 1.6,-3.7 3.7,-3.7l24.9,0c2,0 3.7,1.6 3.7,3.7l0,7.5c0,2 -1.6,3.7 -3.7,3.7z" class="st0"/>    <path stroke="null" id="svg_25" d="m33197.450537,17100.050287l-24.9,0c-2,0 -3.7,-1.6 -3.7,-3.7l0,-7.5c0,-2 1.6,-3.7 3.7,-3.7l24.9,0c2,0 3.7,1.6 3.7,3.7l0,7.5c0,2 -1.7,3.7 -3.7,3.7z" class="st0"/>    <path stroke="null" id="svg_26" d="m33053.750537,17128.250287l-24.9,0c-2,0 -3.7,-1.6 -3.7,-3.7l0,-7.5c0,-2 1.6,-3.7 3.7,-3.7l24.9,0c2,0 3.7,1.6 3.7,3.7l0,7.5c0,2 -1.6,3.7 -3.7,3.7z" class="st0"/>    <path stroke="null" id="svg_27" d="m33197.450537,17128.250287l-24.9,0c-2,0 -3.7,-1.6 -3.7,-3.7l0,-7.5c0,-2 1.6,-3.7 3.7,-3.7l24.9,0c2,0 3.7,1.6 3.7,3.7l0,7.5c0,2 -1.7,3.7 -3.7,3.7z" class="st0"/>    <path stroke="null" id="svg_28" d="m33131.650537,17080.650287l-37,0c-2,0 -3.7,-1.6 -3.7,-3.7l0,-13c0,-2 1.6,-3.7 3.7,-3.7l37,0c2,0 3.7,1.6 3.7,3.7l0,13c0,2 -1.7,3.7 -3.7,3.7z" class="st0"/>    <line stroke="null" id="svg_29" y2="17072.450287" x2="33011.750537" y1="17061.750287" x1="33011.750537" class="st0"/>    <line stroke="null" id="svg_30" y2="17071.150287" x2="33214.550537" y1="17062.450287" x1="33214.550537" class="st0"/>    <line stroke="null" id="svg_31" y2="17071.850287" x2="33068.150537" y1="17071.850287" x1="33034.650537" class="st0"/>    <line stroke="null" id="svg_32" y2="17071.850287" x2="33214.550537" y1="17071.850287" x1="33180.350537" class="st0"/>    <line stroke="null" id="svg_33" y2="17071.850287" x2="33024.550537" y1="17071.850287" x1="33012.450537" class="st0"/>    <line stroke="null" id="svg_34" y2="17071.850287" x2="33168.850537" y1="17071.850287" x1="33159.450537" class="st0"/>    <line stroke="null" id="svg_35" y2="17100.050287" x2="33138.650537" y1="17100.050287" x1="33088.950537" class="st0"/>    <line stroke="null" id="svg_36" y2="17102.050287" x2="33096.350537" y1="17142.350287" x1="33096.350537" class="st0"/>    <line stroke="null" id="svg_37" y2="17100.650287" x2="33113.850537" y1="17140.950287" x1="33113.850537" class="st0"/>    <line stroke="null" id="svg_38" y2="17102.050287" x2="33131.250537" y1="17142.350287" x1="33131.250537" class="st0"/>    <line stroke="null" id="svg_39" y2="17002.650287" x2="33112.450537" y1="16977.150287" x1="33112.450537" class="st0"/>    <line stroke="null" id="svg_40" y2="16979.650287" x2="33137.250537" y1="16979.650287" x1="33113.850537" class="st0"/>    <path stroke="null" id="svg_41" d="m33134.750537,16982.050287c0,2.1 -2.3,3.8 -5.1,3.8" class="st0"/>    <line stroke="null" id="svg_42" y2="16992.050287" x2="33114.150537" y1="16992.050287" x1="33137.550537" class="st0"/>    <path stroke="null" id="svg_43" d="m33129.950537,16985.850287c2.8,0 5.1,1.7 5.1,3.8" class="st0"/></g>  </g> </g></svg>